<svg xmlns="http://www.w3.org/2000/svg" viewBox="0 0 92 190" role="img" aria-label="Кнопочный телефон">
  <rect x="15" y="5" width="62" height="180" rx="17" fill="#d7d9d8" stroke="#2a2a2a" stroke-width="5"/>
  <rect x="24" y="20" width="44" height="48" rx="4" fill="#7f9f91" stroke="#2a2a2a" stroke-width="3"/>
  <path d="M30 84h32M30 102h32M30 120h32M30 138h32" stroke="#333" stroke-width="3" stroke-linecap="round"/>
  <circle cx="32" cy="84" r="5" fill="#f7f7f7" stroke="#333" stroke-width="2"/>
  <circle cx="46" cy="84" r="5" fill="#f7f7f7" stroke="#333" stroke-width="2"/>
  <circle cx="60" cy="84" r="5" fill="#f7f7f7" stroke="#333" stroke-width="2"/>
  <circle cx="32" cy="104" r="5" fill="#f7f7f7" stroke="#333" stroke-width="2"/>
  <circle cx="46" cy="104" r="5" fill="#f7f7f7" stroke="#333" stroke-width="2"/>
  <circle cx="60" cy="104" r="5" fill="#f7f7f7" stroke="#333" stroke-width="2"/>
  <circle cx="32" cy="124" r="5" fill="#f7f7f7" stroke="#333" stroke-width="2"/>
  <circle cx="46" cy="124" r="5" fill="#f7f7f7" stroke="#333" stroke-width="2"/>
  <circle cx="60" cy="124" r="5" fill="#f7f7f7" stroke="#333" stroke-width="2"/>
  <path d="M30 158c8 8 24 8 32 0" fill="none" stroke="#333" stroke-width="4" stroke-linecap="round"/>
  <text x="31" y="42" font-family="Arial, sans-serif" font-size="8" font-weight="700" fill="#203626">Ждём</text>
  <text x="29" y="55" font-family="Arial, sans-serif" font-size="10" font-weight="700" fill="#203626">16:00</text>
</svg>
